<svg xmlns="http://www.w3.org/2000/svg" viewBox="0 0 64 48" aria-hidden="true" role="img">
  <rect width="64" height="48" fill="#fe0000"/>
  <rect width="32" height="24" fill="#000095"/>
  <circle cx="16" cy="12" r="6.5" fill="#fff"/>
  <g fill="#000095">
    <circle cx="16" cy="12" r="2.4"/>
  </g>
  <g fill="#fff" transform="translate(16 12)">
    <polygon points="0,-9 1.2,-5.2 5.4,-5.4 2.1,-2.7 3.3,1.1 0,-1.1 -3.3,1.1 -2.1,-2.7 -5.4,-5.4 -1.2,-5.2"/>
    <polygon points="9,0 5.2,1.2 5.4,5.4 2.7,2.1 -1.1,3.3 1.1,0 -1.1,-3.3 2.7,-2.1 5.4,-5.4 5.2,-1.2"/>
    <polygon points="0,9 -1.2,5.2 -5.4,5.4 -2.1,2.7 -3.3,-1.1 0,1.1 3.3,-1.1 2.1,2.7 5.4,5.4 1.2,5.2"/>
    <polygon points="-9,0 -5.2,-1.2 -5.4,-5.4 -2.7,-2.1 1.1,-3.3 -1.1,0 1.1,3.3 -2.7,2.1 -5.4,5.4 -5.2,1.2"/>
  </g>
</svg>
