<svg xmlns="http://www.w3.org/2000/svg" viewBox="0 0 64 48" aria-hidden="true" role="img">
  <rect width="64" height="48" fill="#fff"/>
  <g fill="#b22234">
    <rect y="0" width="64" height="3.69"/>
    <rect y="7.38" width="64" height="3.69"/>
    <rect y="14.76" width="64" height="3.69"/>
    <rect y="22.14" width="64" height="3.69"/>
    <rect y="29.52" width="64" height="3.69"/>
    <rect y="36.9" width="64" height="3.69"/>
    <rect y="44.31" width="64" height="3.69"/>
  </g>
  <rect width="28" height="25.85" fill="#3c3b6e"/>
  <g fill="#fff">
    <circle cx="4" cy="4" r="1"/>
    <circle cx="10" cy="4" r="1"/>
    <circle cx="16" cy="4" r="1"/>
    <circle cx="22" cy="4" r="1"/>
    <circle cx="7" cy="8" r="1"/>
    <circle cx="13" cy="8" r="1"/>
    <circle cx="19" cy="8" r="1"/>
    <circle cx="25" cy="8" r="1"/>
    <circle cx="4" cy="12" r="1"/>
    <circle cx="10" cy="12" r="1"/>
    <circle cx="16" cy="12" r="1"/>
    <circle cx="22" cy="12" r="1"/>
    <circle cx="7" cy="16" r="1"/>
    <circle cx="13" cy="16" r="1"/>
    <circle cx="19" cy="16" r="1"/>
    <circle cx="25" cy="16" r="1"/>
    <circle cx="4" cy="20" r="1"/>
    <circle cx="10" cy="20" r="1"/>
    <circle cx="16" cy="20" r="1"/>
    <circle cx="22" cy="20" r="1"/>
  </g>
</svg>
